<svg xmlns="http://www.w3.org/2000/svg" xmlns:xlink="http://www.w3.org/1999/xlink" contentStyleType="text/css" data-diagram-type="CLASS" height="811px" preserveAspectRatio="none" style="width:777px;height:811px;background:#FFFFFF;" version="1.1" viewBox="0 0 777 811" width="777px" zoomAndPan="magnify"><?plantuml 1.2026.3?><defs/><g><g class="title" data-source-line="18"><text fill="#000000" font-family="sans-serif" font-size="14" font-weight="700" lengthAdjust="spacing" textLength="423.2881" x="173.5294" y="23.5352">UC-005 Domain Glossary &#8212; Phone List Coordination (CIM)</text></g><!--class Caregiver--><g class="entity" data-qualified-name="Caregiver" data-source-line="27" id="ent0002"><rect fill="#FFF9E6" height="76.2656" rx="2.5" ry="2.5" style="stroke:#B8860B;stroke-width:0.5;" width="191.5547" x="171.54" y="360.1483"/><ellipse cx="233.3105" cy="376.1483" fill="#ADD1B2" rx="11" ry="11" style="stroke:#181818;stroke-width:1;"/><path d="M235.7837,382.2913 Q235.2026,382.5902 234.5634,382.7396 Q233.9243,382.889 233.2187,382.889 Q230.7119,382.889 229.3921,381.2371 Q228.0722,379.5853 228.0722,376.4642 Q228.0722,373.3348 229.3921,371.6829 Q230.7119,370.0311 233.2187,370.0311 Q233.9243,370.0311 234.5717,370.1805 Q235.2192,370.3299 235.7837,370.6287 L235.7837,373.3514 Q235.1528,372.7704 234.5593,372.5006 Q233.9658,372.2308 233.3349,372.2308 Q231.9902,372.2308 231.3054,373.2975 Q230.6206,374.3641 230.6206,376.4642 Q230.6206,378.556 231.3054,379.6226 Q231.9902,380.6893 233.3349,380.6893 Q233.9658,380.6893 234.5593,380.4195 Q235.1528,380.1497 235.7837,379.5687 Z " fill="#000000"/><text fill="#000000" font-family="sans-serif" font-size="12" font-weight="700" lengthAdjust="spacing" textLength="59.5137" x="253.8105" y="380.6834">Caregiver</text><line style="stroke:#B8860B;stroke-width:0.5;" x1="172.54" x2="362.0947" y1="392.1483" y2="392.1483"/><text fill="#000000" font-family="sans-serif" font-size="12" lengthAdjust="spacing" textLength="171.6973" x="177.54" y="407.7498">A staff member who provides</text><text fill="#000000" font-family="sans-serif" font-size="12" lengthAdjust="spacing" textLength="179.5547" x="177.54" y="421.8827">care to residents during a shift</text><line style="stroke:#B8860B;stroke-width:0.5;" x1="172.54" x2="362.0947" y1="428.4139" y2="428.4139"/></g><!--class Shift--><g class="entity" data-qualified-name="Shift" data-source-line="32" id="ent0003"><rect fill="#FFF9E6" height="76.2656" rx="2.5" ry="2.5" style="stroke:#B8860B;stroke-width:0.5;" width="168.5156" x="191.06" y="527.5483"/><ellipse cx="256.8295" cy="543.5483" fill="#ADD1B2" rx="11" ry="11" style="stroke:#181818;stroke-width:1;"/><path d="M259.3027,549.6913 Q258.7216,549.9902 258.0825,550.1396 Q257.4433,550.289 256.7377,550.289 Q254.2309,550.289 252.9111,548.6371 Q251.5913,546.9853 251.5913,543.8642 Q251.5913,540.7348 252.9111,539.0829 Q254.2309,537.4311 256.7377,537.4311 Q257.4433,537.4311 258.0908,537.5805 Q258.7382,537.7299 259.3027,538.0288 L259.3027,540.7514 Q258.6718,540.1704 258.0783,539.9006 Q257.4848,539.6308 256.8539,539.6308 Q255.5092,539.6308 254.8244,540.6975 Q254.1396,541.7641 254.1396,543.8642 Q254.1396,545.956 254.8244,547.0226 Q255.5092,548.0893 256.8539,548.0893 Q257.4848,548.0893 258.0783,547.8195 Q258.6718,547.5497 259.3027,546.9687 Z " fill="#000000"/><text fill="#000000" font-family="sans-serif" font-size="12" font-weight="700" lengthAdjust="spacing" textLength="28.4766" x="277.3295" y="548.0834">Shift</text><line style="stroke:#B8860B;stroke-width:0.5;" x1="192.06" x2="358.5756" y1="559.5483" y2="559.5483"/><text fill="#000000" font-family="sans-serif" font-size="12" lengthAdjust="spacing" textLength="156.5156" x="197.06" y="575.1498">A working period at Slottet</text><text fill="#000000" font-family="sans-serif" font-size="12" lengthAdjust="spacing" textLength="155.877" x="197.06" y="589.2827">Types: Day, Evening, Night</text><line style="stroke:#B8860B;stroke-width:0.5;" x1="192.06" x2="358.5756" y1="595.8139" y2="595.8139"/></g><!--class Phone--><g class="entity" data-qualified-name="Phone" data-source-line="37" id="ent0004"><rect fill="#FFF9E6" height="104.5313" rx="2.5" ry="2.5" style="stroke:#B8860B;stroke-width:0.5;" width="223.7344" x="424.45" y="513.4083"/><ellipse cx="495.4021" cy="529.4083" fill="#ADD1B2" rx="11" ry="11" style="stroke:#181818;stroke-width:1;"/><path d="M497.8753,535.5513 Q497.2942,535.8502 496.6551,535.9996 Q496.0159,536.149 495.3104,536.149 Q492.8035,536.149 491.4837,534.4971 Q490.1639,532.8453 490.1639,529.7242 Q490.1639,526.5948 491.4837,524.9429 Q492.8035,523.2911 495.3104,523.2911 Q496.0159,523.2911 496.6634,523.4405 Q497.3108,523.5899 497.8753,523.8888 L497.8753,526.6114 Q497.2444,526.0304 496.6509,525.7606 Q496.0574,525.4908 495.4266,525.4908 Q494.0818,525.4908 493.397,526.5575 Q492.7122,527.6241 492.7122,529.7242 Q492.7122,531.816 493.397,532.8826 Q494.0818,533.9493 495.4266,533.9493 Q496.0574,533.9493 496.6509,533.6795 Q497.2444,533.4097 497.8753,532.8287 Z " fill="#000000"/><text fill="#000000" font-family="sans-serif" font-size="12" font-weight="700" lengthAdjust="spacing" textLength="73.3301" x="515.9021" y="533.9434">Work Phone</text><line style="stroke:#B8860B;stroke-width:0.5;" x1="425.45" x2="647.1844" y1="545.4083" y2="545.4083"/><text fill="#000000" font-family="sans-serif" font-size="12" lengthAdjust="spacing" textLength="211.7344" x="430.45" y="561.0098">A physical phone used by caregivers</text><text fill="#000000" font-family="sans-serif" font-size="12" lengthAdjust="spacing" textLength="207.8965" x="430.45" y="575.1427">for communication on the premises</text><text fill="#000000" font-family="sans-serif" font-size="12" lengthAdjust="spacing" textLength="188.7949" x="430.45" y="589.2755">Numbers are fixed and assigned</text><text fill="#000000" font-family="sans-serif" font-size="12" lengthAdjust="spacing" textLength="162.0938" x="430.45" y="603.4083">to the facility, not to people</text><line style="stroke:#B8860B;stroke-width:0.5;" x1="425.45" x2="647.1844" y1="609.9395" y2="609.9395"/></g><!--class Resident--><g class="entity" data-qualified-name="Resident" data-source-line="44" id="ent0005"><rect fill="#FFF9E6" height="76.2656" rx="2.5" ry="2.5" style="stroke:#B8860B;stroke-width:0.5;" width="148.6289" x="7" y="527.5483"/><ellipse cx="50.3069" cy="543.5483" fill="#ADD1B2" rx="11" ry="11" style="stroke:#181818;stroke-width:1;"/><path d="M52.7801,549.6913 Q52.199,549.9902 51.5599,550.1396 Q50.9207,550.289 50.2151,550.289 Q47.7083,550.289 46.3885,548.6371 Q45.0687,546.9853 45.0687,543.8642 Q45.0687,540.7348 46.3885,539.0829 Q47.7083,537.4311 50.2151,537.4311 Q50.9207,537.4311 51.5682,537.5805 Q52.2156,537.7299 52.7801,538.0288 L52.7801,540.7514 Q52.1492,540.1704 51.5557,539.9006 Q50.9622,539.6308 50.3313,539.6308 Q48.9866,539.6308 48.3018,540.6975 Q47.617,541.7641 47.617,543.8642 Q47.617,545.956 48.3018,547.0226 Q48.9866,548.0893 50.3313,548.0893 Q50.9622,548.0893 51.5557,547.8195 Q52.1492,547.5497 52.7801,546.9687 Z " fill="#000000"/><text fill="#000000" font-family="sans-serif" font-size="12" font-weight="700" lengthAdjust="spacing" textLength="53.7246" x="70.5974" y="548.0834">Resident</text><line style="stroke:#B8860B;stroke-width:0.5;" x1="8" x2="154.6289" y1="559.5483" y2="559.5483"/><text fill="#000000" font-family="sans-serif" font-size="12" lengthAdjust="spacing" textLength="136.6289" x="13" y="575.1498">A person receiving care</text><text fill="#000000" font-family="sans-serif" font-size="12" lengthAdjust="spacing" textLength="52.3652" x="13" y="589.2827">at Slottet</text><line style="stroke:#B8860B;stroke-width:0.5;" x1="8" x2="154.6289" y1="595.8139" y2="595.8139"/></g><!--class Slottet--><g class="entity" data-qualified-name="Slottet" data-source-line="49" id="ent0006"><rect fill="#FFF9E6" height="76.2656" rx="2.5" ry="2.5" style="stroke:#B8860B;stroke-width:0.5;" width="196.5586" x="169.04" y="125.1883"/><ellipse cx="243.0478" cy="141.1883" fill="#ADD1B2" rx="11" ry="11" style="stroke:#181818;stroke-width:1;"/><path d="M245.521,147.3313 Q244.9399,147.6302 244.3007,147.7796 Q243.6616,147.929 242.956,147.929 Q240.4492,147.929 239.1294,146.2771 Q237.8095,144.6253 237.8095,141.5042 Q237.8095,138.3748 239.1294,136.7229 Q240.4492,135.0711 242.956,135.0711 Q243.6616,135.0711 244.309,135.2205 Q244.9565,135.3699 245.521,135.6688 L245.521,138.3914 Q244.8901,137.8104 244.2966,137.5406 Q243.7031,137.2708 243.0722,137.2708 Q241.7275,137.2708 241.0427,138.3375 Q240.3579,139.4041 240.3579,141.5042 Q240.3579,143.596 241.0427,144.6626 Q241.7275,145.7293 243.0722,145.7293 Q243.7031,145.7293 244.2966,145.4595 Q244.8901,145.1897 245.521,144.6087 Z " fill="#000000"/><text fill="#000000" font-family="sans-serif" font-size="12" font-weight="700" lengthAdjust="spacing" textLength="40.043" x="263.5478" y="145.7234">Slottet</text><line style="stroke:#B8860B;stroke-width:0.5;" x1="170.04" x2="364.5986" y1="157.1883" y2="157.1883"/><text fill="#000000" font-family="sans-serif" font-size="12" lengthAdjust="spacing" textLength="184.3242" x="175.04" y="172.7898">24-hour residential care facility</text><text fill="#000000" font-family="sans-serif" font-size="12" lengthAdjust="spacing" textLength="184.5586" x="175.04" y="186.9227">for residents with special needs</text><line style="stroke:#B8860B;stroke-width:0.5;" x1="170.04" x2="364.5986" y1="193.4539" y2="193.4539"/></g><g class="entity" data-qualified-name="GMN13" data-source-line="63" id="ent0014"><path d="M404.28,686.5983 L404.28,788.4616 A0,0 0 0 0 404.28,788.4616 L762.3469,788.4616 A0,0 0 0 0 762.3469,788.4616 L762.3469,696.5983 L752.3469,686.5983 L573.38,686.5983 L550.54,618.0983 L565.38,686.5983 L404.28,686.5983 A0,0 0 0 0 404.28,686.5983" fill="#FEFFDD" style="stroke:#181818;stroke-width:0.5;"/><path d="M752.3469,686.5983 L752.3469,696.5983 L762.3469,696.5983 L752.3469,686.5983" fill="#FEFFDD" style="stroke:#181818;stroke-width:0.5;"/><text fill="#000000" font-family="sans-serif" font-size="13" font-weight="700" lengthAdjust="spacing" textLength="213.0273" x="410.28" y="704.1666">Fixed phone numbers at Slottet:</text><text fill="#000000" font-family="sans-serif" font-size="13" lengthAdjust="spacing" textLength="337.0669" x="410.28" y="719.4772">41522, 41523, 41524, 41525, 41526, 41527, 41529</text><text fill="#000000" font-family="sans-serif" font-size="13" lengthAdjust="spacing" textLength="4.1133" x="410.28" y="734.7877">&#160;</text><text fill="#000000" font-family="sans-serif" font-size="13" lengthAdjust="spacing" textLength="161.5732" x="410.28" y="750.0983">These numbers belong to</text><text fill="#000000" font-family="sans-serif" font-size="13" font-style="italic" lengthAdjust="spacing" textLength="40.5742" x="575.9665" y="750.0983">Slottet</text><text fill="#000000" font-family="sans-serif" font-size="13" lengthAdjust="spacing" textLength="96.9224" x="616.5407" y="750.0983">, not to people.</text><text fill="#000000" font-family="sans-serif" font-size="13" lengthAdjust="spacing" textLength="174.1416" x="410.28" y="765.4088">A Caregiver carries a phone</text><text fill="#000000" font-family="sans-serif" font-size="13" font-style="italic" lengthAdjust="spacing" textLength="41.501" x="588.5349" y="765.4088">during</text><text fill="#000000" font-family="sans-serif" font-size="13" lengthAdjust="spacing" textLength="43.5005" x="634.1491" y="765.4088">a shift,</text><text fill="#000000" font-family="sans-serif" font-size="13" lengthAdjust="spacing" textLength="225.3545" x="410.28" y="780.7194">but the phone itself stays at Slottet.</text></g><g class="entity" data-qualified-name="GMN16" data-source-line="72" id="ent0017"><path d="M89.67,678.9483 L89.67,796.1221 A0,0 0 0 0 89.67,796.1221 L368.9498,796.1221 A0,0 0 0 0 368.9498,796.1221 L368.9498,688.9483 L358.9498,678.9483 L248.99,678.9483 L265.22,603.9583 L240.99,678.9483 L89.67,678.9483 A0,0 0 0 0 89.67,678.9483" fill="#FEFFDD" style="stroke:#181818;stroke-width:0.5;"/><path d="M358.9498,678.9483 L358.9498,688.9483 L368.9498,688.9483 L358.9498,678.9483" fill="#FEFFDD" style="stroke:#181818;stroke-width:0.5;"/><text fill="#000000" font-family="sans-serif" font-size="13" font-weight="700" lengthAdjust="spacing" textLength="74.7754" x="95.67" y="696.5166">Shift types:</text><text fill="#000000" font-family="sans-serif" font-size="13" lengthAdjust="spacing" textLength="35.3438" x="95.67" y="711.8272">- Day</text><text fill="#000000" font-family="sans-serif" font-size="13" lengthAdjust="spacing" textLength="60.6519" x="95.67" y="727.1377">- Evening</text><text fill="#000000" font-family="sans-serif" font-size="13" lengthAdjust="spacing" textLength="46.0332" x="95.67" y="742.4483">- Night</text><text fill="#000000" font-family="sans-serif" font-size="13" lengthAdjust="spacing" textLength="4.1133" x="95.67" y="757.7588">&#160;</text><text fill="#000000" font-family="sans-serif" font-size="13" lengthAdjust="spacing" textLength="91.1904" x="95.67" y="773.0694">A shift defines</text><text fill="#000000" font-family="sans-serif" font-size="13" font-style="italic" lengthAdjust="spacing" textLength="33.395" x="190.9737" y="773.0694">when</text><text fill="#000000" font-family="sans-serif" font-size="13" lengthAdjust="spacing" textLength="92.6948" x="228.482" y="773.0694">work happens.</text><text fill="#000000" font-family="sans-serif" font-size="13" lengthAdjust="spacing" textLength="258.2798" x="95.67" y="788.3799">Each Caregiver works one Shift at a time.</text></g><g class="entity" data-qualified-name="N1" data-source-line="82" id="ent0019"><path d="M400.79,43.4883 L400.79,283.1465 L749.8305,283.1465 L749.8305,53.4883 L739.8305,43.4883 L400.79,43.4883" fill="#FEFFDD" style="stroke:#181818;stroke-width:0.5;"/><path d="M739.8305,43.4883 L739.8305,53.4883 L749.8305,53.4883 L739.8305,43.4883" fill="#FEFFDD" style="stroke:#181818;stroke-width:1;"/><text fill="#000000" font-family="sans-serif" font-size="13" font-weight="700" lengthAdjust="spacing" textLength="251.1387" x="406.79" y="61.0566">What this glossary does NOT contain:</text><text fill="#000000" font-family="sans-serif" font-size="13" lengthAdjust="spacing" textLength="4.1133" x="406.79" y="76.3672">&#160;</text><text fill="#000000" font-family="sans-serif" font-size="13" lengthAdjust="spacing" textLength="328.0405" x="406.79" y="91.6777">No "PhoneAssignment" &#8212; that is a system construct</text><text fill="#000000" font-family="sans-serif" font-size="13" lengthAdjust="spacing" textLength="314.5518" x="406.79" y="106.9883">that appears in PIM. In the real world there is only</text><text fill="#000000" font-family="sans-serif" font-size="13" lengthAdjust="spacing" textLength="301.8184" x="406.79" y="122.2988">a relationship: a Caregiver carries a Work Phone</text><text fill="#000000" font-family="sans-serif" font-size="13" lengthAdjust="spacing" textLength="237.4976" x="406.79" y="137.6094">during a Shift. No third "thing" exists.</text><text fill="#000000" font-family="sans-serif" font-size="13" lengthAdjust="spacing" textLength="4.1133" x="406.79" y="152.9199">&#160;</text><text fill="#000000" font-family="sans-serif" font-size="13" lengthAdjust="spacing" textLength="279.0176" x="406.79" y="168.2305">No data types (Guid, String, int) &#8212; those are</text><text fill="#000000" font-family="sans-serif" font-size="13" lengthAdjust="spacing" textLength="233.8794" x="406.79" y="183.541">platform-specific and appear in PSM.</text><text fill="#000000" font-family="sans-serif" font-size="13" lengthAdjust="spacing" textLength="4.1133" x="406.79" y="198.8516">&#160;</text><text fill="#000000" font-family="sans-serif" font-size="13" lengthAdjust="spacing" textLength="279.2461" x="406.79" y="214.1621">No methods or operations &#8212; concepts don't</text><text fill="#000000" font-family="sans-serif" font-size="13" font-style="italic" lengthAdjust="spacing" textLength="16.1675" x="690.1494" y="214.1621">do</text><text fill="#000000" font-family="sans-serif" font-size="13" lengthAdjust="spacing" textLength="74.6802" x="406.79" y="229.4727">things, they</text><text fill="#000000" font-family="sans-serif" font-size="13" font-style="italic" lengthAdjust="spacing" textLength="19.7412" x="485.5835" y="229.4727">are</text><text fill="#000000" font-family="sans-serif" font-size="13" lengthAdjust="spacing" textLength="43.6021" x="509.4379" y="229.4727">things.</text><text fill="#000000" font-family="sans-serif" font-size="13" lengthAdjust="spacing" textLength="4.1133" x="406.79" y="244.7832">&#160;</text><text fill="#000000" font-family="sans-serif" font-size="13" lengthAdjust="spacing" textLength="281.0488" x="406.79" y="260.0938">No primary keys or foreign keys &#8212; these are</text><text fill="#000000" font-family="sans-serif" font-size="13" lengthAdjust="spacing" textLength="243.4072" x="406.79" y="275.4043">database concerns that appear in PSM.</text></g><!--link Caregiver to Shift--><g class="link" data-entity-1="ent0002" data-entity-2="ent0003" data-link-type="association" data-source-line="55" id="lnk7"><path codeLine="55" d="M265.34,436.9083 C264.91,446.5283 264.53,456.8483 264.31,466.4083 C264.15,473.9683 263.81,475.8783 264.31,483.4083 C265.28,497.7583 267.2,513.4383 269.16,527.1583" fill="none" id="Caregiver-Shift" style="stroke:#181818;stroke-width:1;"/><polygon fill="#000000" points="269.5214,480.0591,272.0752,470.8978,266.2026,471.1464,269.5214,480.0591" style="stroke:#000000;stroke-width:1;"/><text fill="#000000" font-family="sans-serif" font-size="13" lengthAdjust="spacing" textLength="57.7129" x="278.31" y="479.9766">works on</text><text fill="#000000" font-family="sans-serif" font-size="13" lengthAdjust="spacing" textLength="22.7119" x="241.3285" y="456.8529">1..*</text><text fill="#000000" font-family="sans-serif" font-size="13" lengthAdjust="spacing" textLength="8.2202" x="259.4331" y="516.8432">1</text></g><!--link Caregiver to Phone--><g class="link" data-entity-1="ent0002" data-entity-2="ent0004" data-link-type="association" data-source-line="56" id="lnk8"><path codeLine="56" d="M312.07,436.8783 C331.26,452.1683 354.29,469.4883 376.31,483.4083 C392.51,493.6483 410.16,503.6583 427.63,512.9583" fill="none" id="Caregiver-Phone" style="stroke:#181818;stroke-width:1;"/><polygon fill="#000000" points="385.4862,477.813,379.5475,470.3845,376.3153,475.2939,385.4862,477.813" style="stroke:#000000;stroke-width:1;"/><text fill="#000000" font-family="sans-serif" font-size="13" lengthAdjust="spacing" textLength="119.9263" x="390.31" y="479.9766">carries during shift</text><text fill="#000000" font-family="sans-serif" font-size="13" lengthAdjust="spacing" textLength="8.2202" x="310.8379" y="457.1072">1</text><text fill="#000000" font-family="sans-serif" font-size="13" lengthAdjust="spacing" textLength="24.667" x="391.7827" y="504.6144">0..1</text></g><!--link Caregiver to Resident--><g class="link" data-entity-1="ent0002" data-entity-2="ent0005" data-link-type="association" data-source-line="57" id="lnk9"><path codeLine="57" d="M221.07,436.7983 C209.6,446.3183 197.42,456.6383 186.31,466.4083 C164.02,486.0483 139.76,508.6683 120.19,527.2483" fill="none" id="Caregiver-Resident" style="stroke:#181818;stroke-width:1;"/><polygon fill="#000000" points="187.5873,478.4014,196.2837,474.5514,192.3598,470.175,187.5873,478.4014" style="stroke:#000000;stroke-width:1;"/><text fill="#000000" font-family="sans-serif" font-size="13" lengthAdjust="spacing" textLength="55.2246" x="200.31" y="479.9766">cares for</text><text fill="#000000" font-family="sans-serif" font-size="13" lengthAdjust="spacing" textLength="22.7119" x="189.6474" y="457.014">1..*</text><text fill="#000000" font-family="sans-serif" font-size="13" lengthAdjust="spacing" textLength="22.7119" x="103.0423" y="516.9486">1..*</text></g><!--reverse link Slottet to Caregiver--><g class="link" data-entity-1="ent0006" data-entity-2="ent0002" data-link-type="composition" data-source-line="58" id="lnk10"><path codeLine="58" d="M267.31,213.7483 C267.31,257.2183 267.31,316.5083 267.31,359.9483" fill="none" id="Slottet-backto-Caregiver" style="stroke:#181818;stroke-width:1;"/><polygon fill="#181818" points="267.31,201.7483,263.31,207.7483,267.31,213.7483,271.31,207.7483,267.31,201.7483" style="stroke:#181818;stroke-width:1;"/><text fill="#000000" font-family="sans-serif" font-size="13" lengthAdjust="spacing" textLength="52.7236" x="268.31" y="326.7166">employs</text><text fill="#000000" font-family="sans-serif" font-size="13" lengthAdjust="spacing" textLength="8.2202" x="258.6642" y="221.949">1</text><text fill="#000000" font-family="sans-serif" font-size="13" lengthAdjust="spacing" textLength="22.7119" x="243.4127" y="349.3803">1..*</text></g><!--reverse link Slottet to Phone--><g class="link" data-entity-1="ent0006" data-entity-2="ent0004" data-link-type="composition" data-source-line="59" id="lnk11"><path codeLine="59" d="M309.8262,210.7529 C370.8362,277.9529 486.05,408.3083 514.31,466.4083 C521.31,480.7983 526.12,497.4483 529.41,512.9183" fill="none" id="Slottet-backto-Phone" style="stroke:#181818;stroke-width:1;"/><polygon fill="#181818" points="301.76,201.8683,302.8316,208.9993,309.8262,210.7529,308.7546,203.6218,301.76,201.8683" style="stroke:#181818;stroke-width:1;"/><text fill="#000000" font-family="sans-serif" font-size="13" lengthAdjust="spacing" textLength="32.6968" x="496.85" y="403.3466">owns</text><text fill="#000000" font-family="sans-serif" font-size="13" lengthAdjust="spacing" textLength="8.2202" x="298.82" y="222.0889">1</text><text fill="#000000" font-family="sans-serif" font-size="13" lengthAdjust="spacing" textLength="8.2202" x="520.0266" y="502.7863">7</text></g><!--reverse link Slottet to Resident--><g class="link" data-entity-1="ent0006" data-entity-2="ent0005" data-link-type="composition" data-source-line="60" id="lnk12"><path codeLine="60" d="M217.2654,210.2831 C179.8854,246.7931 135.33,297.3983 108.31,360.1483 C84.73,414.9183 80.4,484.9683 80.26,527.2483" fill="none" id="Slottet-backto-Resident" style="stroke:#181818;stroke-width:1;"/><polygon fill="#181818" points="225.85,201.8983,218.7628,203.2291,217.2654,210.2831,224.3526,208.9522,225.85,201.8983" style="stroke:#181818;stroke-width:1;"/><text fill="#000000" font-family="sans-serif" font-size="13" lengthAdjust="spacing" textLength="44.6177" x="109.31" y="403.3466">houses</text><text fill="#000000" font-family="sans-serif" font-size="13" lengthAdjust="spacing" textLength="8.2202" x="210.3374" y="222.1239">1</text><text fill="#000000" font-family="sans-serif" font-size="13" lengthAdjust="spacing" textLength="22.7119" x="56.2493" y="516.9486">1..*</text></g><?plantuml-src fLRRRjiu47tNLmoy3qaAsxbiahP6ra3YE8M1n0tY57scfR54M285aagYBXROZzWlt2_PuL2ob6JxL0EsP6bcUERCcI7tu8zV-KHxy6qsEZewWsjT2AdWIwwj5QQ6_TdYxW16C5TfBcqMxP7ftVKbtE8JvXEOwQAid71IArYe14ka7-NWJYUOa-az6bjYxEGJJk2gibAXjN18VYh6qbKYbp_OcmC_Pj928aLgH049Rhmrk0pXwjjgiPolLZ3xkfpDxnzN81oiSkqSEl1HKv_1tIt4kQ3uIWT8OrWue93BhuyW815EGE61mRz__-FZ6WH1NwN9szKbsY7Tm-8wN0jqcKxi6EOYpc2jNtme0N60Jlw40L-aTPRSYJCFrA38uLcRFEaX7DBZL9Wazxdh3GXLm-8HR6qT5cFEVAcTZ8cYHmObVGemkC-qmajhPQeA8dK0z2DT3TvcJAQ2anFa7a9vQDQPAcx15MXIOh31Th-u8q9wE1EkzP3y1So8Y9IgPC3Aeinhc5q-F2pcH3HyrsOBZ0MeoW9McTmuWlsBaeiebnn_fZjVeR3cBJ5CUj4caIe8ZJKPHNOhLIcyLBZgLoBUfaPNAfdfN1luxURcvlFy_9qP1KBJc5nz-dH-TDKpiPb8z3Ff2JOYj_ZM-KOhjt8rmLxhF7dxzj8v8zULGpQJFn2EJoBYQJGQKG9Krq1ugo3hNqH1iOCT_mCGjbUDFoEWpoLO9pORacInfeVFcORIw2UPeENtiPUnqrHMAtt_KHTLncSXA2EgLlHNr2x4rUD5-6wt08bswprAD5BtrSll7trtJE1Qr4EOFw4Yoo4iPPhrGtT2uVYXV6tyCgkjZ4br9J-kB2QmhXavPneIsL1LObqKbI9RBhOEWYqD5j8swIuhJuFbvjt85uea57svKp1X4oB3ksr4B7Fg6T_GpZyiKPSvza0_D9GnvFPFXvgM8GG6OvHFdXwFbz_r2EgH6vu4Ufln54ATd8uoNPbTXIGnmLLh4UxIxshuB5q6VdnwOuMOMBzKq5FJBmPpfecgN5hONxSJDXSghKIA8Uym7aOKIcmFM7MTm0R7u_670Jsakq6ZYGchmNhkfwzCWztHU4nteRmJduMHk5CSw-sDMxS2t-rOPcTozMbFevOmlyo7pheBDA69LkQwjkzDFtPuzBEoFulLMvcguUKK4J--cvtJXP_D78LhSR6Uth2sWc1LgxbTtISNX-ifcvuUdvsS3FdoUxYSXijPk9o7oyTm-Ho5bihGTc7Nc6jYZnHw8QVD0XU7Slf6kED6bnqfBVsYmKdkeHBUk-t_8RlHQ0gzn8RIMSmtVh3K_Qp64MtXVb5ynmsBe-KcA8LtpOw8aPyGpLqp9ff_OLQqmunzsmsU43zdg1YlrnraegHpX0svykRRfTiA4nkf4d01JXRu3ZUruFAuHVlTxuVE7o_ITeT9D8QJ0OrZHxqKiWZpvVystt1cQFRSTpjk63h-jGSl3E-wxtRSS39mxIQlLHxO4gyQUV9gF-uAtCrNTjgD-B0XUzIKeKbWG1UL3fh3oNYN4n-0k6Am_wMIoH1Mpl0abyeTD0bgouSYzYa94_KcJuvORcGSvYmdoFcjxhhepN49g9SrZSsG3GVTxNU9LdkE5QfzjHlE204Tk8YKsh-YjLa9uNaNlZIoy6NROirh42waseJ_pNck1ztdkXRqW1StolQBiyE-ayn_?></g></svg>
